<?xml version="1.0" encoding="UTF-8"?>
<svg xmlns="http://www.w3.org/2000/svg" xmlns:xlink="http://www.w3.org/1999/xlink" width="400px" height="200px" viewBox="0 0 400 200" version="1.1">
<g id="surface1">
<path style=" stroke:none;fill-rule:nonzero;fill:rgb(0%,0%,0%);fill-opacity:1;" d="M 192 51.800781 L 192 59 L 152 59 L 152 92.601562 L 180 106.398438 L 180 72 L 220 72 L 220 92.601562 L 248 106.398438 L 248 72.5 L 192 44.5 Z M 192 51.800781 "/>
<path style=" stroke:none;fill-rule:nonzero;fill:rgb(0%,0%,0%);fill-opacity:1;" d="M 96.199219 113.898438 C 93.601562 116.300781 97.800781 119.398438 103 118.898438 C 108.601562 118.300781 111.398438 115.5 108.199219 113.601562 C 104.601562 111.398438 98.601562 111.601562 96.199219 113.898438 Z M 96.199219 113.898438 "/>
<path style=" stroke:none;fill-rule:nonzero;fill:rgb(0%,0%,0%);fill-opacity:1;" d="M 227.800781 113.601562 C 224.398438 115.699219 227.800781 118.5 234.199219 118.5 C 237.800781 118.5 239.199219 117.898438 239.601562 116.101562 C 240.800781 112.300781 232.800781 110.601562 227.800781 113.601562 Z M 227.800781 113.601562 "/>
<path style=" stroke:none;fill-rule:nonzero;fill:rgb(0%,0%,0%);fill-opacity:1;" d="M 188 126.5 L 188 139 L 194 139 C 199.398438 139 200 138.699219 200 135.699219 L 200 132.5 L 204.199219 135.699219 C 207.601562 138.398438 209.601562 139 215.398438 139 C 222.800781 139 222.800781 138.800781 214.398438 133.101562 C 211 130.898438 210 129.300781 211.199219 128.5 C 212.199219 127.800781 215 125.800781 217.601562 124.101562 L 222.199219 121 L 216 121 C 211.800781 121 208.398438 121.898438 205 123.699219 L 200.199219 126.5 L 200 120.199219 L 200 114 L 188 114 Z M 188 126.5 "/>
<path style=" stroke:none;fill-rule:nonzero;fill:rgb(0%,0%,0%);fill-opacity:1;" d="M 290 126.5 L 290 139 L 302 139 L 302 114 L 290 114 Z M 290 126.5 "/>
<path style=" stroke:none;fill-rule:nonzero;fill:rgb(0%,0%,0%);fill-opacity:1;" d="M 96 130.5 C 96 138.300781 95.398438 140 93 140 C 91.199219 140 90 140.898438 90 142.5 C 90 144.601562 91 145 95.800781 145 C 106.199219 145 108 143 108 131.398438 L 108 121 L 96 121 Z M 96 130.5 "/>
<path style=" stroke:none;fill-rule:nonzero;fill:rgb(0%,0%,0%);fill-opacity:1;" d="M 121.800781 122.300781 C 113.199219 125.601562 111.601562 132.5 118.601562 136.5 C 123.199219 139.199219 126.800781 139.601562 143.601562 139.199219 L 152 139 L 152 121.101562 L 138.601562 121.101562 C 131 121.101562 123.601562 121.699219 121.800781 122.300781 Z M 137.601562 127.199219 C 143.199219 130 138 136 131 134.601562 C 126.800781 133.800781 125.199219 131.5 126.800781 128.5 C 128.199219 125.800781 133.601562 125.199219 137.601562 127.199219 Z M 137.601562 127.199219 "/>
<path style=" stroke:none;fill-rule:nonzero;fill:rgb(0%,0%,0%);fill-opacity:1;" d="M 160 130.101562 L 160 139 L 172 139 L 172 133 C 172 127 173 126.300781 180.601562 126.898438 C 181.398438 126.898438 182 125.699219 182 124.101562 C 182 121.300781 181.800781 121.300781 171 121.199219 L 160 121.199219 Z M 160 130.101562 "/>
<path style=" stroke:none;fill-rule:nonzero;fill:rgb(0%,0%,0%);fill-opacity:1;" d="M 228 129.898438 L 228 139 L 240.199219 139 L 239.601562 130.199219 C 239 121.5 239 121.5 233.601562 121.199219 L 228 120.898438 Z M 228 129.898438 "/>
<path style=" stroke:none;fill-rule:nonzero;fill:rgb(0%,0%,0%);fill-opacity:1;" d="M 250.800781 123.5 C 247.199219 125.300781 246 127 246 130.398438 C 246 134.101562 247 135.199219 252.398438 137.5 C 257.199219 139.601562 260 140 264.601562 139.601562 C 267.800781 139.300781 273.601562 139 277.398438 139 L 284.199219 139 L 283.601562 130.199219 L 283 121.5 L 269.398438 121.300781 C 257.199219 121.101562 255.199219 121.300781 250.800781 123.5 Z M 270 128 C 274 131.800781 268.398438 135.800781 261 134.398438 C 258 133.800781 256.800781 128 259.398438 126.699219 C 262 125.300781 268 126.101562 270 128 Z M 270 128 "/>
</g>
</svg>
