<?xml version="1.0" standalone="no"?>
<!DOCTYPE svg PUBLIC "-//W3C//DTD SVG 20010904//EN"
 "http://www.w3.org/TR/2001/REC-SVG-20010904/DTD/svg10.dtd">
<svg version="1.0" xmlns="http://www.w3.org/2000/svg"
 width="200.000000pt" height="200.000000pt" viewBox="0 0 200.000000 200.000000"
 preserveAspectRatio="xMidYMid meet">

<g transform="translate(0.000000,200.000000) scale(0.100000,-0.100000)"
fill="#000000" stroke="none">
<path d="M960 1482 l0 -72 -100 0 -100 0 0 -168 0 -168 70 -69 70 -69 0 172 0
172 100 0 100 0 0 -103 0 -103 70 -69 70 -69 0 169 0 170 -140 140 -140 140 0
-73z"/>
<path d="M481 861 c-13 -24 8 -55 34 -50 28 6 42 34 26 53 -18 22 -48 20 -60
-3z"/>
<path d="M1139 864 c-17 -21 0 -49 32 -49 18 0 25 6 27 24 6 38 -34 55 -59 25z"/>
<path d="M940 735 l0 -125 30 0 c27 0 30 3 30 33 l0 32 21 -32 c17 -27 27 -33
56 -33 37 0 37 2 -5 59 -17 22 -22 38 -16 46 5 7 19 27 32 44 l23 31 -31 0
c-21 0 -38 -9 -55 -27 l-24 -28 -1 63 0 62 -30 0 -30 0 0 -125z"/>
<path d="M1450 735 l0 -125 30 0 30 0 0 125 0 125 -30 0 -30 0 0 -125z"/>
<path d="M480 695 c0 -78 -3 -95 -15 -95 -9 0 -15 -9 -15 -25 0 -21 5 -25 29
-25 52 0 61 20 61 136 l0 104 -30 0 -30 0 0 -95z"/>
<path d="M609 777 c-43 -33 -51 -102 -16 -142 23 -27 41 -31 125 -27 l42 2 0
89 0 90 -67 0 c-38 0 -75 -6 -84 -12z m79 -49 c28 -28 2 -88 -33 -74 -21 8
-29 31 -21 61 7 27 34 33 54 13z"/>
<path d="M800 699 l0 -89 30 0 30 0 0 60 c0 60 5 67 43 61 4 0 7 12 7 28 0 28
-1 28 -55 29 l-55 0 0 -89z"/>
<path d="M1140 701 l0 -91 30 0 31 0 -3 88 c-3 87 -3 87 -30 90 l-28 3 0 -90z"/>
<path d="M1254 765 c-18 -18 -24 -35 -24 -69 0 -37 5 -48 32 -71 24 -21 38
-25 61 -21 16 3 45 6 64 6 l34 0 -3 88 -3 87 -68 2 c-61 2 -71 0 -93 -22z m96
-45 c20 -38 -8 -78 -45 -64 -15 6 -21 64 -8 77 13 14 43 6 53 -13z"/>
</g>
</svg>
